<svg width="40" height="40" viewBox="0 0 40 40" fill="none" xmlns="http://www.w3.org/2000/svg">
<path d="M30.531 38.8724H19.1277C18.3736 38.8724 17.7483 38.2471 17.7483 37.493C17.7483 36.7389 18.3736 36.1136 19.1277 36.1136H30.531C32.4989 36.1136 34.4301 34.4765 34.7612 32.5269L37.2074 17.8867C37.4281 16.5625 36.6926 14.6679 35.6626 13.8402L22.9165 3.651C21.4451 2.47389 18.9989 2.47387 17.546 3.63259L4.80009 13.8402C3.75172 14.6863 3.03442 16.5625 3.25513 17.8867L3.77012 20.9949C3.89886 21.7489 3.38389 22.4662 2.62981 22.5766C1.87572 22.7237 1.17683 22.1904 1.04808 21.4363L0.533097 18.3465C0.146858 16.0659 1.25042 13.1415 3.07126 11.6885L15.8171 1.48061C18.2816 -0.505767 22.1624 -0.487356 24.6454 1.49902L37.3913 11.6885C39.1938 13.1415 40.2973 16.0659 39.9295 18.3465L37.4833 32.9867C36.9315 36.2421 33.8232 38.8724 30.531 38.8724Z" fill="#4361EE"/>
<path d="M7.35735 39.222C6.60326 39.222 5.99631 38.615 5.97792 37.8794C5.92274 35.3964 4.28584 33.7595 1.80288 33.7043C1.04879 33.6859 0.441823 33.0606 0.460216 32.2881C0.478608 31.534 1.08556 30.9454 1.83964 30.9454H1.87641C5.83076 31.0374 8.66321 33.8514 8.73677 37.8058C8.75517 38.5599 8.1482 39.2036 7.39411 39.222C7.37572 39.222 7.37574 39.222 7.35735 39.222Z" fill="#4361EE"/>
<path d="M12.875 39.222C12.121 39.222 11.4956 38.6151 11.4956 37.861C11.4772 36.6471 11.2749 35.4884 10.907 34.4032C9.96903 31.7179 7.96427 29.7314 5.27898 28.775C4.19383 28.3887 3.03512 28.1866 1.82122 28.1866C1.06713 28.1866 0.441812 27.5612 0.460204 26.7888C0.460204 26.0347 1.08554 25.4277 1.83963 25.4277H1.85802C3.38459 25.4461 4.83757 25.7036 6.1986 26.1818C9.67476 27.4141 12.2681 30.0074 13.5004 33.4836C13.9786 34.8446 14.2361 36.316 14.2545 37.8242C14.2545 38.5967 13.6475 39.222 12.875 39.222Z" fill="#4361EE"/>
<path d="M1.83924 39.6819C0.809264 39.6819 0 38.8542 0 37.8427C0 36.8311 0.827656 36.0034 1.83924 36.0034C2.85082 36.0034 3.67847 36.8311 3.67847 37.8427C3.67847 38.8542 2.86921 39.6819 1.83924 39.6819Z" fill="#4361EE"/>
</svg>
