<svg width="43" height="48" viewBox="0 0 43 48" fill="none" xmlns="http://www.w3.org/2000/svg">
<path d="M41.5 15.9855V31.0433C41.5 33.5089 40.1791 35.7984 38.0437 37.0532L24.9672 44.6041C22.8318 45.8369 20.1901 45.8369 18.0327 44.6041L4.95625 37.0532C2.82086 35.8204 1.5 33.5309 1.5 31.0433V15.9855C1.5 13.5199 2.82086 11.2303 4.95625 9.9755L18.0327 2.4246C20.1681 1.1918 22.8098 1.1918 24.9672 2.4246L38.0437 9.9755C40.1791 11.2303 41.5 13.4979 41.5 15.9855Z" stroke="#4361EE" stroke-width="3" stroke-linecap="round" stroke-linejoin="round"/>
<path d="M21.511 21.3132C24.344 21.3132 26.6403 19.0165 26.6403 16.1837C26.6403 13.3508 24.344 11.0544 21.511 11.0544C18.6782 11.0544 16.3817 13.3508 16.3817 16.1837C16.3817 19.0165 18.6782 21.3132 21.511 21.3132Z" stroke="#4361EE" stroke-width="3" stroke-linecap="round" stroke-linejoin="round"/>
<path d="M30.3167 33.7734C30.3167 29.8108 26.3761 26.5967 21.511 26.5967C16.6458 26.5967 12.7052 29.8108 12.7052 33.7734" stroke="#4361EE" stroke-width="3" stroke-linecap="round" stroke-linejoin="round"/>
</svg>
