<svg width="50" height="50" viewBox="0 0 50 50" fill="none" xmlns="http://www.w3.org/2000/svg">
<g clip-path="url(#clip0_181_2128)">
<circle cx="25" cy="25" r="25" fill="#3A0CA3"/>
<path d="M37.7076 22.5466L25.9883 13.1714C25.8497 13.0604 25.6775 13 25.5 13C25.3225 13 25.1503 13.0604 25.0117 13.1714L13.2924 22.5466C13.166 22.648 13.0742 22.7862 13.0298 22.9421C12.9855 23.098 12.9907 23.2638 13.0448 23.4166C13.0989 23.5694 13.1991 23.7016 13.3317 23.7949C13.4642 23.8882 13.6225 23.9379 13.7846 23.9372H15.3472V37.2187C15.3472 37.4259 15.4295 37.6247 15.576 37.7712C15.7225 37.9177 15.9212 38 16.1285 38H31.7542V36.4375H28.6291V29.4061C28.6291 29.1989 28.5467 29.0002 28.4002 28.8536C28.2537 28.7071 28.055 28.6248 27.8478 28.6248H23.16C22.9528 28.6248 22.7541 28.7071 22.6076 28.8536C22.4611 29.0002 22.3788 29.1989 22.3788 29.4061V36.4375H16.9097V23.9372H30.1916V22.3747H16.0113L25.5039 14.7808L34.9965 22.3747H34.8793C34.6721 22.3747 34.4734 22.457 34.3269 22.6035C34.1804 22.75 34.0981 22.9488 34.0981 23.156V27.8436H35.6606V23.9372H37.2232C37.3846 23.9363 37.5418 23.8854 37.6731 23.7915C37.8044 23.6976 37.9034 23.5654 37.9565 23.413C38.0096 23.2605 38.0142 23.0954 37.9696 22.9402C37.9251 22.7851 37.8335 22.6476 37.7076 22.5466ZM23.9413 30.1873H27.0665V36.4375H23.9413V30.1873Z" fill="white"/>
<path d="M32.5355 33.7734L31.5276 32.7655L30.426 33.8671L31.9886 35.4296C32.135 35.5752 32.333 35.6568 32.5394 35.6568C32.7458 35.6568 32.9438 35.5752 33.0902 35.4296L37.7779 30.742L36.6763 29.6405L32.5355 33.7734Z" fill="white"/>
</g>
<defs>
<clipPath id="clip0_181_2128">
<rect width="50" height="50" fill="white"/>
</clipPath>
</defs>
</svg>
