<svg width="24" height="24" viewBox="0 0 24 24" fill="none" xmlns="http://www.w3.org/2000/svg">
<path d="M23.7182 9.16453L12.4682 0.164531C12.3352 0.0580289 12.1698 0 11.9994 0C11.829 0 11.6637 0.0580289 11.5307 0.164531L0.280674 9.16453C0.159309 9.2619 0.0712303 9.3946 0.0286419 9.54425C-0.0139466 9.6939 -0.00893669 9.8531 0.0429776 9.99978C0.0948918 10.1465 0.19114 10.2734 0.318387 10.3629C0.445635 10.4524 0.597581 10.5002 0.753174 10.4995H2.25317V23.2495C2.25317 23.4484 2.33219 23.6392 2.47284 23.7799C2.6135 23.9205 2.80426 23.9995 3.00317 23.9995H18.0032V22.4995H15.0032V15.7495C15.0032 15.5506 14.9242 15.3599 14.7835 15.2192C14.6429 15.0785 14.4521 14.9995 14.2532 14.9995H9.75317C9.55426 14.9995 9.3635 15.0785 9.22284 15.2192C9.08219 15.3599 9.00317 15.5506 9.00317 15.7495V22.4995H3.75317V10.4995H16.5032V8.99953H2.89067L12.0032 1.70953L21.1157 8.99953H21.0032C20.8043 8.99953 20.6135 9.07855 20.4728 9.2192C20.3322 9.35985 20.2532 9.55062 20.2532 9.74953V14.2495H21.7532V10.4995H23.2532C23.4081 10.4986 23.559 10.4498 23.6851 10.3597C23.8111 10.2695 23.9062 10.1426 23.9571 9.99624C24.0081 9.84991 24.0125 9.69138 23.9697 9.54245C23.9269 9.39352 23.839 9.2615 23.7182 9.16453ZM10.5032 16.4995H13.5032V22.4995H10.5032V16.4995Z" fill="white"/>
<path d="M18.7531 19.942L17.7856 18.9745L16.7281 20.032L18.2281 21.532C18.3687 21.6717 18.5588 21.7501 18.7569 21.7501C18.955 21.7501 19.1451 21.6717 19.2856 21.532L23.7856 17.032L22.7281 15.9745L18.7531 19.942Z" fill="white"/>
</svg>
